<svg xmlns="http://www.w3.org/2000/svg" xmlns:xlink="http://www.w3.org/1999/xlink" viewBox="0 0 374.45 287.33"><defs><style>.cls-1{fill:url(#linear-gradient);}.cls-2{fill:url(#linear-gradient-2);}.cls-3{fill:url(#linear-gradient-3);}.cls-4{fill:#231f20;}.cls-5{fill:url(#linear-gradient-4);}.cls-6{fill:#58595b;}.cls-7{fill:none;stroke:#8dc63f;stroke-miterlimit:10;stroke-width:0.25px;}</style><linearGradient id="linear-gradient" x1="101.88" y1="255.95" x2="179.74" y2="140.51" gradientUnits="userSpaceOnUse"><stop offset="0" stop-color="#5e8bc8"/><stop offset="0" stop-color="#f4db2f"/><stop offset="0.14" stop-color="#f0da30"/><stop offset="0.3" stop-color="#e2d732"/><stop offset="0.46" stop-color="#cdd235"/><stop offset="0.63" stop-color="#aecb39"/><stop offset="0.8" stop-color="#87c23f"/><stop offset="0.97" stop-color="#58b746"/><stop offset="1" stop-color="#4fb547"/><stop offset="1" stop-color="#dfa727"/></linearGradient><linearGradient id="linear-gradient-2" x1="158.58" y1="83.69" x2="151.29" y2="0.36" gradientUnits="userSpaceOnUse"><stop offset="0" stop-color="#00a995"/><stop offset="0" stop-color="#fe0"/><stop offset="1" stop-color="#da2128"/></linearGradient><linearGradient id="linear-gradient-3" x1="226.63" y1="187.39" x2="249.92" y2="159.63" gradientUnits="userSpaceOnUse"><stop offset="0.03" stop-color="#00aec9"/><stop offset="0.12" stop-color="#06abc5"/><stop offset="0.25" stop-color="#16a1ba"/><stop offset="0.39" stop-color="#3192a7"/><stop offset="0.55" stop-color="#577c8c"/><stop offset="0.71" stop-color="#88606b"/><stop offset="0.89" stop-color="#c33e42"/><stop offset="1" stop-color="#ee2524"/><stop offset="1" stop-color="#ec2424"/><stop offset="1" stop-color="#e61e25"/></linearGradient><linearGradient id="linear-gradient-4" x1="32.15" y1="200.87" x2="123.2" y2="-13.65" gradientUnits="userSpaceOnUse"><stop offset="0" stop-color="#00a995"/><stop offset="0" stop-color="#3c3795"/><stop offset="0.56" stop-color="#a53594"/><stop offset="1" stop-color="#da2128"/></linearGradient></defs><title>Asset 5</title><g id="Layer_2" data-name="Layer 2"><g id="Layer_1-2" data-name="Layer 1"><polygon class="cls-1" points="217.9 166.25 271.16 224.75 0 187.23 217.9 166.25"/><polygon class="cls-2" points="155.35 0 174.32 82.32 138.02 29.8 155.35 0"/><polygon class="cls-3" points="217.9 166.25 205.39 122.26 271.16 224.75 217.9 166.25"/><path class="cls-4" d="M248.44,147.88a9.41,9.41,0,0,1,8.31,4.79.86.86,0,0,1,.18.4l-.09.09H254.7a8,8,0,0,0-3.85-3,8.64,8.64,0,0,0-2.45-.41,7.67,7.67,0,0,0-5.59,2.37,8.19,8.19,0,0,0,.67,11.89,7.8,7.8,0,0,0,4.92,1.7,7.57,7.57,0,0,0,6.21-3.26h2.05l.14.13a9.51,9.51,0,0,1-5.1,4.43,11.35,11.35,0,0,1-3.35.53,9.35,9.35,0,0,1-7.33-3.26,10.12,10.12,0,0,1-2.41-6.35v-.58a10.11,10.11,0,0,1,3.35-7.19A9.71,9.71,0,0,1,248.44,147.88Z"/><path class="cls-4" d="M269.68,147.88a9.17,9.17,0,0,1,7.91,4.16,10.09,10.09,0,0,1,1.74,5.54V158a9.93,9.93,0,0,1-3.53,7.37,9.74,9.74,0,0,1-6.3,2.19,9.45,9.45,0,0,1-7-3,10.35,10.35,0,0,1-2.59-6.57v-.49a10,10,0,0,1,3.89-7.73A10.36,10.36,0,0,1,269.68,147.88Zm-7.82,9.88a8.1,8.1,0,0,0,3.13,6.4,7.93,7.93,0,0,0,4.69,1.56,7.36,7.36,0,0,0,5.32-2.24,8.42,8.42,0,0,0,2.37-5.85c0-2.79-1.34-5.09-4-6.88a8.62,8.62,0,0,0-3.76-1,7.72,7.72,0,0,0-6.21,3.22A8.64,8.64,0,0,0,261.86,157.76Z"/><path class="cls-4" d="M282.43,148.56h2.1q.35.34,3.31,5.23l7,11.21V148.82c0-.18.07-.26.14-.26h1.52l.13.13v18.73l-.13.13h-2.1c-.17-.14-1.16-1.7-3-4.69l-7.33-11.71h-.05v16.27l-.13.13h-1.52c-.09,0-.14-.12-.14-.27V148.82C282.32,148.64,282.36,148.56,282.43,148.56Z"/><path class="cls-4" d="M309.43,147.88a9.43,9.43,0,0,1,8.32,4.79.86.86,0,0,1,.18.4l-.09.09h-2.15a8,8,0,0,0-3.84-3,8.76,8.76,0,0,0-2.46-.41,7.67,7.67,0,0,0-5.59,2.37,8.21,8.21,0,0,0,.67,11.89,7.82,7.82,0,0,0,4.92,1.7,7.57,7.57,0,0,0,6.21-3.26h2.06l.13.13A9.52,9.52,0,0,1,312.7,167a11.42,11.42,0,0,1-3.36.53,9.35,9.35,0,0,1-7.33-3.26,10.12,10.12,0,0,1-2.41-6.35v-.58a10.11,10.11,0,0,1,3.35-7.19A9.71,9.71,0,0,1,309.43,147.88Z"/><path class="cls-4" d="M321,148.56h9.65l.09.08v1.7l-.09.09h-7.86l-.05.23V157l.14.13h7.77l.09.09v1.7l-.09.09h-7.86l-.05.22v6.35l.05.22h7.86l.09.09v1.61l-.09.09H321c-.09,0-.13-.12-.13-.27V148.82C320.91,148.64,321,148.56,321,148.56Z"/><path class="cls-4" d="M333.81,148.56h5.28a5.43,5.43,0,0,1,5.54,3.75,5,5,0,0,1,.22,1.43v.31a5.59,5.59,0,0,1-2.5,4.56,5.88,5.88,0,0,1-3.31,1h-3.35l-.09.09v7.59c0,.16,0,.25-.13.27h-1.66l-.09-.09V148.64Zm1.79,2v7l.09.09h2.86q3.07,0,3.93-2.15a3.21,3.21,0,0,0,.27-1.29v-.27a3.3,3.3,0,0,0-2.32-3.26,7.51,7.51,0,0,0-1.7-.18h-3Z"/><path class="cls-4" d="M348,148.56h9.25l.13.13v1.61l-.13.13h-3.58l-.09.09v16.76c0,.16,0,.25-.13.27h-1.66l-.09-.09v-16.8l0-.23H348c-.09,0-.14-.12-.14-.26v-1.35C347.83,148.64,347.88,148.56,348,148.56Z"/><path class="cls-4" d="M366,147.88c2.43,0,4,1.32,4.64,3.94l.09.89v.14l-.09.09H369c-.08,0-.17-.35-.27-1a2.92,2.92,0,0,0-2.86-2.15,3.08,3.08,0,0,0-3.09,2.51l0,.49v.35c0,1.33,1,2.28,2.95,2.87a21.22,21.22,0,0,1,3.17,1.25,4.42,4.42,0,0,1,2,2.23,6.72,6.72,0,0,1,.31,2.06v.13a6.42,6.42,0,0,1-2.14,4.87,6.34,6.34,0,0,1-3.53,1q-3.74,0-5-4.24l-.18-1.35a.3.3,0,0,1,.31-.22H362c.13,0,.22.36.27,1.07q.81,2.82,3.4,2.82a3.27,3.27,0,0,0,3.26-2.41,5.16,5.16,0,0,0,.18-1.26v-.31a3,3,0,0,0-2.1-3,24.08,24.08,0,0,0-3.31-1.2,4.78,4.78,0,0,1-2.55-2.24,7,7,0,0,1-.4-2.23,5.48,5.48,0,0,1,1.92-4A5.31,5.31,0,0,1,366,147.88Z"/><path d="M138.28,93.18q0,16.38-17.25,24.26-10.48,4.91-25.41,5.93v15.78H88.53V68.41L91.71,68a82.79,82.79,0,0,1,8.57-.39q23.07,0,32.49,10.33Q138.27,83.89,138.28,93.18Zm-7.09,0a13.14,13.14,0,0,0-3.18-9q-8.35-9.33-32.39-7.91v38.41a95.11,95.11,0,0,0,11.65-1.63,54.65,54.65,0,0,0,9.73-2.92Q131.19,104.32,131.19,93.17Z"/><path d="M201.25,134,197,140.83,174.58,120.4a76.91,76.91,0,0,1-17.46,3v15.78H150V68.41l3.28-.39a77.78,77.78,0,0,1,8.46-.39q23.07,0,32.5,10.34a21.61,21.61,0,0,1,5.61,15.25q0,16.16-16.83,24.16Zm-8.47-40.83a13.14,13.14,0,0,0-3.18-9q-8.39-9.33-32.48-7.91v38.41a95.74,95.74,0,0,0,11.67-1.63,58.2,58.2,0,0,0,9.88-2.92Q192.79,104.32,192.78,93.17Z"/><path d="M220.2,50.44h-7.1V41.77h7.1Zm0,88.71h-7.1V67.89h7.1Z"/><path d="M291.11,119.1q0,9.71-9.53,15.13-8.35,4.92-20.21,4.92a68.51,68.51,0,0,1-26.15-5.43l-3.38-1.43,2.33-8.27,3.38,1.42c1.2.43,2.44.86,3.71,1.29l3.81,1.3a60.64,60.64,0,0,0,16.3,2.45q9.63,0,16-3.23,6.66-3.36,6.67-8.15,0-4.51-7.31-7.37-4.44-1.8-15.34-3.88-13.23-2.71-18.31-5.17-10.27-4.79-10.27-14.74,0-10.6,8.15-15.65,6.88-4.4,20.43-4.4t23.49,5.69L288,75.39,285,83.28l-3.18-1.94a43.57,43.57,0,0,0-20.42-4.78q-21.5,0-21.49,11.38,0,4.53,7.41,7.37a106.59,106.59,0,0,0,15.24,3.88c2.19.43,4.09.84,5.72,1.23s2.92.71,3.91,1c1.77.43,3.37.88,4.82,1.36a24.36,24.36,0,0,1,3.86,1.61Q291.12,109.15,291.11,119.1Z"/><path d="M369.75,139.15h-7.09V83l-22.87,23.8v32.33H332.7V106.82L310,83v56.13h-7.09v-75L336.3,99.19q2-2.32,27.52-29l5.93-6.08Z"/><polygon class="cls-5" points="0 187.23 155.35 0 49.2 182.49 0 187.23"/><path class="cls-6" d="M.42,259.92H5.53a7.88,7.88,0,0,1,8.15,5.86,9.36,9.36,0,0,1,.36,2.49v.4a8.36,8.36,0,0,1-3.57,7A8.46,8.46,0,0,1,5.85,277H.42q-.12,0-.12-.24V260.16Q.33,259.92.42,259.92ZM2,261.6l0,.2v13.38l0,.2H5.32c3.2,0,5.26-1.17,6.19-3.53a7.67,7.67,0,0,0,.72-3.34,7,7,0,0,0-2.77-5.9,7.38,7.38,0,0,0-4.06-1Z"/><path class="cls-6" d="M23.14,259.92h8.68l.08.08v1.52l-.08.08H24.74l0,.2v5.67l.12.12h7l.08.08v1.53l-.08.08H24.74l0,.2v5.7l0,.2h7.08l.08.08v1.45l-.08.08H23.14q-.12,0-.12-.24V260.16Q23,259.92,23.14,259.92Z"/><path class="cls-6" d="M46,259.31c2.19,0,3.59,1.18,4.18,3.54l.08.8v.12l-.08.08H48.7c-.06,0-.14-.3-.24-.92A2.6,2.6,0,0,0,45.89,261a2.76,2.76,0,0,0-2.77,2.25l0,.44V264c0,1.2.88,2.05,2.65,2.58a20.1,20.1,0,0,1,2.85,1.12,4,4,0,0,1,1.77,2,6,6,0,0,1,.28,1.85v.12a5.78,5.78,0,0,1-1.93,4.38,5.73,5.73,0,0,1-3.17.92q-3.36,0-4.5-3.82l-.16-1.2a.26.26,0,0,1,.28-.2h1.29q.16,0,.24,1a3,3,0,0,0,3,2.53,2.93,2.93,0,0,0,2.93-2.17,4.43,4.43,0,0,0,.16-1.12v-.28A2.72,2.72,0,0,0,46.94,269a22.12,22.12,0,0,0-3-1.09,4.24,4.24,0,0,1-2.29-2,6.1,6.1,0,0,1-.36-2A4.9,4.9,0,0,1,43,260.24,4.71,4.71,0,0,1,46,259.31Z"/><path class="cls-6" d="M59.73,259.92h1.48l.08.08v16.91l-.08.08H59.73q-.12,0-.12-.24V260.16Q59.64,259.92,59.73,259.92Z"/><path class="cls-6" d="M79.31,259.31a8.21,8.21,0,0,1,7.43,4.38l0,.2-.08.08H84.89c-.14,0-.44-.3-.92-.92A6.65,6.65,0,0,0,79.15,261a7.16,7.16,0,0,0-5,2,7.58,7.58,0,0,0-2.13,5.1,7.72,7.72,0,0,0,2.65,5.71,7.14,7.14,0,0,0,4.42,1.52,6.9,6.9,0,0,0,5.22-2.57A6.77,6.77,0,0,0,85.7,270l0,0H77.18l-.12-.12v-1.33l.08-.08H87.67s.08,0,.08.12a9,9,0,0,1-1.57,4.74A8.84,8.84,0,0,1,79,277a8.67,8.67,0,0,1-5.75-2.09,9.42,9.42,0,0,1-2.93-6.63v-.36a8.85,8.85,0,0,1,3.66-7.07A9.84,9.84,0,0,1,79.31,259.31Z"/><path class="cls-6" d="M96.84,259.92h1.89q.31.3,3,4.7L108,274.7V260.16q0-.24.12-.24h1.37l.12.12v16.83l-.12.12h-1.89c-.16-.13-1-1.53-2.65-4.22l-6.59-10.52h0v14.62l-.12.12H96.84q-.12,0-.12-.24V260.16Q96.75,259.92,96.84,259.92Z"/><path class="cls-6" d="M137.14,255h1.12c.08,0,.12.11.12.25v23.5a.24.24,0,0,1-.28.28h-.92l-.16-.16V255.08Z"/><path class="cls-6" d="M165.87,259.92h4.74a4.87,4.87,0,0,1,5,3.37,4.66,4.66,0,0,1,.2,1.29v.28a5,5,0,0,1-2.25,4.1,5.38,5.38,0,0,1-3,.88h-3l-.08.08v6.83q0,.21-.12.24h-1.48l-.08-.08V260Zm1.6,1.8V268l.08.08h2.57c1.85,0,3-.64,3.54-1.93a2.9,2.9,0,0,0,.24-1.16v-.24a3,3,0,0,0-2.09-2.94,7.19,7.19,0,0,0-1.53-.16h-2.73Z"/><path class="cls-6" d="M184.88,259.92h1.49l.08.08v15.18l0,.2h5.91l.08.08v1.45l-.08.08h-7.52q-.12,0-.12-.24V260.16Q184.79,259.92,184.88,259.92Z"/><path class="cls-6" d="M210,259.92q.12.07,2.37,6l4.26,11-.08.08h-1.69a34.43,34.43,0,0,1-1.53-3.9,5.06,5.06,0,0,0-.64-1.44h-7.47c-.11.12-.66,1.55-1.65,4.3a3.07,3.07,0,0,1-.52,1h-1.53l-.08-.08L208,260l0,0Zm-1,1.76L205.83,270l0,0h6.23l.08-.08-3.13-8.32Z"/><path class="cls-6" d="M225.73,259.92h1.89q.31.3,3,4.7l6.3,10.08V260.16q0-.24.12-.24h1.37l.12.12v16.83l-.12.12H236.5c-.15-.13-1-1.53-2.65-4.22l-6.59-10.52h0v14.62l-.12.12h-1.37q-.12,0-.12-.24V260.16Q225.64,259.92,225.73,259.92Z"/><path class="cls-6" d="M266,255h1.13c.08,0,.12.11.12.25v23.5c0,.19-.1.28-.29.28h-.92l-.16-.16V255.08Z"/><path class="cls-6" d="M294.8,259.92h4.1a4.47,4.47,0,0,1,4.54,3.49,3.85,3.85,0,0,1,.12,1v.44a3.47,3.47,0,0,1-1.57,2.93l1,.56a4.48,4.48,0,0,1,1.53,3.5,5.09,5.09,0,0,1-2.53,4.58,6.13,6.13,0,0,1-2.69.6H294.8q-.12,0-.12-.24V260.16Q294.71,259.92,294.8,259.92Zm1.6,1.68,0,.2v5.35l.13.12h1.36c1.84,0,3-.43,3.46-1.29a2.54,2.54,0,0,0,.4-1.32v-.53c0-1.15-.68-1.94-2-2.37a6.24,6.24,0,0,0-1.57-.16Zm0,7.36,0,.2v6l0,.2h2.42c2,0,3.25-.68,3.69-2.05a6,6,0,0,0,.2-1.2,2.85,2.85,0,0,0-2-2.89,6.09,6.09,0,0,0-2.17-.28Z"/><path class="cls-6" d="M313.57,259.63h1.49l.08.08v10.61a5.57,5.57,0,0,0,1,3.7,3.68,3.68,0,0,0,6-.73,4.9,4.9,0,0,0,.53-2.61v-11l.08-.08h1.48c.08,0,.12.11.12.25V271c0,2.69-.89,4.48-2.69,5.39a7.37,7.37,0,0,1-2.89.56,4.75,4.75,0,0,1-5.1-3.78,9,9,0,0,1-.25-2.29v-11C313.47,259.71,313.51,259.63,313.57,259.63Z"/><path class="cls-6" d="M333.48,259.92H335l.08.08v16.91L335,277h-1.48q-.12,0-.12-.24V260.16Q333.39,259.92,333.48,259.92Z"/><path class="cls-6" d="M344.14,259.92h1.49l.08.08v15.18l0,.2h5.9l.08.08v1.45l-.08.08h-7.51q-.12,0-.12-.24V260.16Q344.05,259.92,344.14,259.92Z"/><path class="cls-6" d="M360.83,259.92h5.1a7.89,7.89,0,0,1,8.16,5.86,9.36,9.36,0,0,1,.36,2.49v.4a8,8,0,0,1-8.2,8.32h-5.42q-.12,0-.12-.24V260.16Q360.74,259.92,360.83,259.92Zm1.61,1.68-.05.2v13.38l.05.2h3.29c3.19,0,5.26-1.17,6.19-3.53a7.67,7.67,0,0,0,.72-3.34,7,7,0,0,0-2.77-5.9,7.42,7.42,0,0,0-4.06-1Z"/><line class="cls-7" y1="249.57" x2="372.75" y2="249.57"/><line class="cls-7" y1="287.2" x2="372.75" y2="287.2"/></g></g></svg>